<?xml version="1.0" encoding="UTF-8"?>
<!-- Generator: Blender, SVG Export for Grease Pencil - v2.0 -->
<!DOCTYPE svg PUBLIC "-//W3C//DTD SVG 1.1//EN" "http://www.w3.org/Graphics/SVG/1.1/DTD/svg11.dtd">
<svg version="1.1" x="0px" y="0px" xmlns="http://www.w3.org/2000/svg" width="400.000000px" height="400.000000px" viewBox="0 0 400.000000 400.000000">
	<g id="blender_frame.1">
		<g id="blender_object.Stroke.1.uuid_0x0">
			<g id="layer.Profile.uuid_0x1">
				<path d="M127.449821,320.462128L126.464409,320.896973L125.582764,321.515686L124.838799,322.294495L124.261024,323.203522L123.871712,324.207764L123.685806,325.268677L123.710411,326.345459L123.944656,327.396759L124.379463,328.382172L124.998207,329.263794L125.777023,330.007782L126.686020,330.585541L127.690285,330.974854L128.751190,331.160767L129.828003,331.136169L130.879303,330.901917L131.887863,330.775085L133.656677,330.800354L142.013824,331.543884L176.273483,331.935699L183.483368,331.234772L194.673538,330.558044L198.587036,330.781586L211.833878,329.775909L238.228714,328.483734L244.929932,327.919189L249.282440,327.900604L259.559143,328.948090L266.413452,329.032959L276.470764,328.238464L279.702087,327.123260L280.860901,326.359039L281.972626,325.445251L282.870056,324.320312L283.514038,323.033356L283.876373,321.640625L283.941193,320.203033L283.705719,318.783325L283.180206,317.443665L282.387665,316.242493L281.362671,315.232361L280.150116,314.457397L278.802887,313.951477L277.379913,313.736725L275.943390,313.822510L274.556122,314.205109L273.278687,314.867767L273.665558,314.871124L266.192902,315.270538L260.591553,315.255035L250.277588,314.253052L244.596497,314.242981L237.421982,314.843628L211.044159,316.210571L198.823181,317.237549L194.965942,317.043030L182.475266,317.865631L175.910416,318.600952L142.446228,319.028229L133.746933,318.964478L130.061523,319.497955z" fill="#000000" stroke="none" fill-opacity="1" />
				<path d="M122.960136,325.666260L123.594421,326.668823L124.412102,327.528320L125.381775,328.211792L126.466156,328.692993L127.623558,328.953369L128.809555,328.982971L129.978455,328.780609L131.085495,328.354095L132.088013,327.719788L132.947540,326.902100L133.631027,325.932434L134.112183,324.848083L134.372559,323.690674L134.402176,322.504700L134.199814,321.335754L133.773270,320.228760L133.699203,319.445526L133.336563,315.038544L132.802353,302.570221L131.828064,290.723572L131.517578,277.887573L132.079025,264.320068L134.456314,245.294266L139.102295,222.621063L144.393784,208.268158L147.710800,201.399292L151.092667,196.690430L155.128571,192.514359L156.974640,190.956314L164.782471,185.582397L171.347321,181.686295L181.296051,177.071320L188.292587,175.478714L197.829956,172.363052L198.608261,172.232010L204.339706,172.379120L208.113480,172.719574L215.704239,174.048920L223.772949,174.786179L228.540756,176.116562L232.521606,177.990677L235.044525,179.431702L240.512512,182.991196L243.358658,185.626602L245.586365,188.410187L247.484024,191.245743L250.096802,196.995010L255.454254,209.923035L259.039368,219.927902L259.686920,222.423721L261.323242,232.713593L263.510437,242.281342L264.484894,248.327560L265.226135,260.811279L264.052216,283.105927L264.082947,287.742188L264.802277,297.561707L264.396942,308.574768L264.138245,310.683380L264.099884,315.914551L263.972931,315.981018L263.657684,317.361877L263.617920,318.777740L263.855072,320.174133L264.360168,321.497406L265.113678,322.696747L266.086700,323.726013L267.241852,324.545715L268.534668,325.124298L269.915558,325.439514L271.331451,325.479309L272.727783,325.242126L274.051086,324.737061L275.250427,323.983521L276.279694,323.010498L277.099396,321.855377L277.677979,320.562561L278.058167,319.391693L278.426514,311.995880L278.677490,309.991699L279.173615,297.699066L278.430511,287.379578L278.403107,283.628876L279.537140,261.143494L278.703369,247.092484L277.513763,239.752090L275.313751,230.212082L273.619171,219.842377L272.684845,216.079605L268.753265,204.971298L263.036133,191.433716L259.977417,184.875778L257.106598,180.394455L253.980347,176.431503L249.584427,172.292938L242.570541,167.544739L239.120361,165.618271L233.821198,163.210892L226.866135,161.218826L217.835892,160.285080L210.234802,158.930054L205.309875,158.486053L198.229675,158.370346L195.070618,158.774673L184.881134,162.043243L177.480240,163.756653L165.200989,169.397781L157.557983,173.959442L148.939972,179.973175L146.071075,182.377487L140.974319,187.626724L136.351746,193.972656L132.055847,202.708313L126.318550,218.495697L121.364876,242.914474L118.977310,262.987732L118.303513,277.557068L118.758194,291.288574L119.785690,303.269836L120.335716,315.856689L121.155907,322.083435z" fill="#000000" stroke="none" fill-opacity="1" />
				<path d="M212.888977,142.991943L213.902954,142.463074L214.794250,141.746582L215.528641,140.869995L216.077942,139.866943L216.420990,138.776031L216.544586,137.639160L216.444031,136.500000L216.123169,135.402344L215.594345,134.388367L214.877853,133.497070L214.001236,132.762665L212.998230,132.213409L211.907288,131.870361L210.770401,131.746735L209.631256,131.847290L208.533615,132.168121L201.271530,134.655365L197.576477,135.153992L179.731369,134.286407L173.229233,133.520966L165.123291,131.689575L161.428482,129.702820L159.045242,127.318024L152.724350,118.635010L150.989243,115.803925L149.717407,112.836823L148.970963,109.886719L148.043777,102.921692L148.112732,95.658112L148.623489,91.974701L149.119324,90.430054L152.153824,83.299225L154.955124,78.712952L158.504654,74.092407L161.623001,70.658936L165.664230,66.898560L169.706696,62.715240L172.552872,60.350677L175.272797,58.578644L177.732269,57.504700L180.600769,56.746735L183.935242,56.119507L190.128693,55.463928L195.172379,55.659241L197.668503,56.039734L202.655502,57.149658L206.274307,58.255554L210.051620,59.857330L213.773453,61.730713L216.569626,63.561371L221.267014,67.546295L223.381714,70.016174L225.823853,73.226471L226.864990,75.381348L227.558105,77.351471L228.101440,79.749634L228.734131,84.645020L229.101257,95.232056L228.610107,104.332703L227.893936,109.626160L224.181427,119.609100L220.988678,125.081573L220.158401,126.218567L219.432419,126.980286L217.469162,128.644897L216.113159,129.065430L209.219788,130.825958L201.582642,132.361603L200.235977,132.811432L198.954788,133.235352L197.780899,133.901093L196.759430,134.783020L195.929657,135.847321L195.323456,137.053009L194.964157,138.353851L194.865494,139.699768L195.031311,141.039062L195.455231,142.320282L196.120941,143.494171L197.002899,144.515656L198.067215,145.345413L199.272903,145.951614L200.573730,146.310944L201.919647,146.409576L203.258972,146.243759L204.460007,146.121307L212.196823,144.523712L219.986649,142.511719L223.393356,141.241455L228.473175,137.675415L230.561874,135.612640L232.497208,133.087830L236.590164,126.119720L241.209503,113.709778L242.455582,105.979370L243.005051,95.654175L242.599533,83.817810L241.809036,77.618134L240.973587,73.862976L239.788879,70.382629L237.949356,66.530426L234.275558,61.476868L231.293991,58.079956L225.133667,52.778992L220.953171,50.005646L216.010422,47.479004L211.246948,45.486908L206.413406,43.970673L200.378647,42.606812L196.720581,42.096893L190.141342,41.831573L182.243011,42.587189L177.815308,43.401062L173.692841,44.495697L169.307205,46.334564L164.792648,49.152191L160.699417,52.567291L156.289551,57.105072L152.167847,60.938873L148.276642,65.226807L144.010620,70.793121L140.364670,76.670898L136.548828,85.440948L135.562103,88.494781L134.694672,94.244110L134.550262,103.262299L135.647339,112.078552L136.812424,116.713654L138.805405,121.549408L141.373657,125.890015L148.569839,135.700958L152.809372,139.930359L159.639282,143.851318L170.651306,146.544220L178.520493,147.432846L197.754684,147.808044L203.889297,146.915222z" fill="#000000" stroke="none" fill-opacity="1" />
			</g>
		</g>
	</g>
</svg>
