<?xml version="1.0" encoding="UTF-8"?>
<!-- Generator: Blender, SVG Export for Grease Pencil - v2.0 -->
<!DOCTYPE svg PUBLIC "-//W3C//DTD SVG 1.1//EN" "http://www.w3.org/Graphics/SVG/1.1/DTD/svg11.dtd">
<svg version="1.1" x="0px" y="0px" xmlns="http://www.w3.org/2000/svg" width="400.000000px" height="400.000000px" viewBox="0 0 400.000000 400.000000">
	<g id="blender_frame.1">
		<g id="blender_object.Stroke.1.uuid_0x0">
			<g id="layer.Blog.uuid_0x1">
				<path d="M169.006729,194.838501L168.136887,193.929428L167.106415,193.207550L165.954880,192.700546L164.726562,192.427963L163.468719,192.400208L162.229599,192.618423L161.056824,193.074173L159.995575,193.749969L159.086502,194.619812L158.364594,195.650314L157.857605,196.801819L157.585022,198.030136L157.557281,199.288010L157.775528,200.527115L158.231232,201.699844L158.907028,202.761154L159.198181,203.141693L159.420471,203.432770L159.649612,203.752502L159.939453,204.153778L160.236053,204.564407L160.525848,204.965607L172.694656,221.812012L180.258392,231.340958L189.469284,244.747177L213.877594,274.512390L216.956833,279.071442L223.752975,286.401703L226.146240,288.024170L227.193344,288.449768L228.931351,288.893738L230.725006,288.869232L232.450195,288.377869L233.267136,288.016205L234.946991,286.974884L236.257278,285.495239L240.704987,278.703857L248.513077,270.989807L249.359955,270.262268L252.653381,268.529480L255.280014,266.666595L259.175537,262.988586L261.331238,260.054138L262.405670,257.369904L262.539032,256.569183L262.517487,254.121445L261.642120,251.835464L260.362915,249.755554L247.508850,234.290436L238.228287,221.988007L234.981552,218.314285L226.706985,207.496704L221.767960,202.039581L197.299500,173.233109L191.170975,165.500107L181.400452,152.556000L177.812653,148.487823L174.170197,142.845612L169.437790,136.690063L165.795120,130.978394L160.719803,124.166931L158.510132,121.925720L152.080917,118.820099L130.554840,111.494415L123.352264,110.352295L120.957756,110.429749L118.730591,111.312622L117.931122,111.787750L116.487648,112.963379L115.405609,114.478333L114.761856,116.225159L114.627548,116.816986L114.748779,120.329651L120.116760,138.385040L122.915977,149.704910L125.899696,158.178482L139.117752,153.442703L136.427521,145.976456L133.633087,134.856537L128.440826,118.098694L127.273033,121.810455L123.796890,124.093353L126.693222,124.884125L146.989899,131.816620L149.922684,132.922028L149.923203,133.025299L154.181412,138.720337L157.866119,144.458801L162.639709,150.703812L166.452332,156.509552L170.462524,161.147812L180.118042,173.947845L186.483459,181.968857L211.359329,211.070618L215.978317,216.089584L224.221466,226.869125L227.419708,230.488678L236.634918,242.713715L248.884247,257.316437L248.967896,256.688660L249.200668,253.641373L249.097061,253.586075L246.658234,255.907898L245.674011,256.672729L242.240494,258.504211L239.486511,260.634430L230.576797,269.545532L226.163589,276.556763L229.642456,275.302094L232.511185,276.058777L227.821732,271.012390L224.875961,266.657837L200.289246,236.887421L190.946671,223.629684L183.161316,213.993378L170.930801,197.378433L170.637436,196.979904L170.337219,196.571991L170.043686,196.173233L169.743469,195.765366L169.306992,195.211884z" fill="#000000" stroke="none" fill-opacity="0.956726074" />
				<path d="M256.359161,263.501953L257.152924,264.447021L258.115784,265.219055L259.210785,265.788452L260.395813,266.133240L261.625336,266.240265L262.852142,266.105347L264.028992,265.733673L265.110779,265.139557L266.055817,264.345825L266.827881,263.382935L267.397278,262.287964L267.742065,261.102905L267.849091,259.873413L267.714172,258.646606L267.342529,257.469727L266.748383,256.387970L266.176697,255.553085L265.194733,254.431427L263.976593,253.572113L262.590546,253.023285L261.114319,252.815720L260.511688,252.797699L259.213531,252.905106L257.965149,253.277161L256.819916,253.897980L255.826843,254.740982L255.028366,255.770172L254.458542,256.941589L254.141769,258.205139L254.091583,259.506775L254.310150,260.790955L254.788116,262.002747L255.491272,263.834473L263.577698,273.205963L270.118469,281.133179L271.576324,283.183350L272.414307,284.175598L273.429840,284.985291L274.583771,285.581299L275.831848,285.940735L277.126068,286.049774L278.416687,285.904236L279.654114,285.509735L280.790771,284.881348L281.782990,284.043335L282.592712,283.027802L283.188721,281.873871L283.548157,280.625793L283.657227,279.331604L283.511688,278.040985L283.117157,276.803558L282.488800,275.666870L280.927063,273.321106L273.666534,264.625519L266.629974,257.100159L265.730377,262.424622L257.987610,264.648010z" fill="#000000" stroke="none" fill-opacity="1" />
				<path d="M274.066315,279.969360L273.839905,280.575958L273.736206,281.215057L273.759216,281.862122L273.907990,282.492279L274.176849,283.081268L274.555389,283.606506L275.029205,284.047791L275.579987,284.388184L276.186554,284.614563L276.825653,284.718262L277.472717,284.695312L278.102844,284.546539L278.691895,284.277679L279.217072,283.899109L279.658386,283.425323L279.998779,282.874542L280.953125,282.104034L281.342529,280.423553L281.178986,279.425110L280.786041,277.775818L279.823395,277.021851L279.250519,276.227051L278.460480,275.647644L277.229034,275.610046L276.753998,275.421448L276.251251,275.329193L275.740143,275.336761L275.240387,275.443878L274.771118,275.646484L274.350372,275.936707L273.994324,276.303436L273.716675,276.732605L273.528076,277.207672L273.435822,277.710419L273.443420,278.221497L273.550537,278.721252L273.753113,279.190552L274.043335,279.611267L274.410065,279.967316L274.839233,280.244965L274.794006,280.646942L273.963562,280.272827L273.799042,279.561035z" fill="#000000" stroke="none" fill-opacity="1" />
				<path d="M280.103882,287.199127L281.073303,286.495514L281.886810,285.616302L282.513184,284.595276L282.928314,283.471649L283.116302,282.288635L283.069855,281.091705L282.790771,279.926819L282.289795,278.838776L281.586212,277.869324L280.706970,277.055847L279.685944,276.429443L278.562347,276.014343L277.379333,275.826385L276.182404,275.872833L275.017487,276.151886L273.929443,276.652863L270.420776,278.591858L265.772736,282.578522L258.036102,288.707581L255.244461,289.882202L254.063049,290.343079L254.017807,290.452545L252.761459,290.586365L251.555344,290.962708L250.445847,291.567139L249.475586,292.376404L248.681854,293.359375L248.095123,294.478333L247.737976,295.690277L247.624130,296.948578L247.757950,298.204926L248.134323,299.411011L248.738739,300.520508L249.547974,301.490784L250.530975,302.284515L251.649918,302.871216L252.861847,303.228394L254.120148,303.342224L255.115555,303.511658L259.555084,302.491882L264.285553,300.306244L274.130493,292.398132L277.335205,288.879883z" fill="#000000" stroke="none" fill-opacity="1" />
				<path d="M230.658340,280.987701L231.351288,280.907288L232.015198,280.693237L232.624619,280.353760L233.156097,279.901947L233.589233,279.355133L233.907333,278.734314L234.098236,278.063354L234.154556,277.368042L234.074158,276.675110L233.860107,276.011169L233.520645,275.401764L233.068848,274.870270L232.522003,274.437164L231.901154,274.119019L231.230225,273.928162L230.534943,273.871826L229.628372,273.837463L228.833588,273.940247L228.081085,274.215881L227.408005,274.650848L226.847504,275.223633L226.427246,275.906006L224.815018,275.906921L224.433014,277.055969L224.334579,278.262878L224.525330,279.458649L224.994415,280.575012L225.715012,281.548157L234.334534,292.423279L245.293610,305.413574L246.170410,306.269104L247.197266,306.937195L248.334717,307.392059L249.539032,307.616333L250.764008,307.601318L251.962463,307.347626L253.088455,306.864990L254.098602,306.171967L254.954178,305.295166L255.622238,304.268341L256.077148,303.130890L256.301361,301.926544L256.286377,300.701599L256.032684,299.503113L255.550049,298.377136L254.857010,297.366974L243.815628,284.209503L234.400223,277.270111L231.649475,280.476318z" fill="#000000" stroke="none" fill-opacity="1" />
				<path d="M132.526443,154.821976L133.233719,154.598236L133.883713,154.240845L134.451553,153.763489L134.915359,153.184525L135.257263,152.526230L135.464218,151.813858L135.528183,151.074799L135.446701,150.337479L135.223038,149.630219L134.865616,148.980148L134.388275,148.412354L133.809326,147.948578L133.151031,147.606659L132.438660,147.399734L131.699600,147.335739L130.962280,147.417160L129.664780,147.640533L128.859940,147.906296L128.133194,148.342422L127.520035,148.927551L127.050392,149.633118L126.747292,150.424637L126.625565,151.263397L125.167603,151.940384L125.330132,153.426498L125.903625,154.807083L128.650345,160.857452L138.961884,154.731628L135.535599,150.806274L133.394165,153.855392z" fill="#000000" stroke="none" fill-opacity="1" />
				<path d="M142.873764,159.724808L132.813828,167.513855L134.548111,169.783966L139.772171,177.643646L148.555115,188.530853L159.686615,203.179398L163.505203,209.554855L164.033081,209.927963L163.317810,208.272247L163.957169,210.205811L165.144409,211.860458L166.771317,213.085480L167.508499,213.469437L168.811218,214.003647L170.196564,214.255356L171.603928,214.213501L172.971893,213.879990L174.240601,213.269348L175.354614,212.408249L176.265274,211.334366L176.932709,210.094620L177.327850,208.743164L177.433365,207.339111L177.244690,205.943817L176.769943,204.618210L176.030029,203.420303L175.057220,202.402405L173.894012,201.608978L175.450943,203.212250L176.516327,205.424973L175.704620,203.174667L174.158188,201.349426L174.364441,201.642960L170.943893,195.916504L158.979355,180.397842L150.368118,170.031494L144.966141,162.409821z" fill="#000000" stroke="none" fill-opacity="1" />
				<path d="M135.797806,150.240372L135.252960,149.499908L134.574173,148.879974L133.787460,148.404404L132.923096,148.091415L132.014267,147.953094L131.095932,147.994736L130.203323,148.214737L129.370819,148.604614L128.630386,149.149460L128.010437,149.828262L127.534866,150.614975L127.221893,151.479355L127.083557,152.388184L127.125214,153.306519L127.345177,154.199112L127.735115,155.031631L133.236664,166.452255L134.861847,167.880112L139.766663,161.240616L142.927063,159.847610L138.765350,152.943466L135.379562,148.260971L133.961014,146.767960L132.877731,145.975204L131.652832,145.426086L130.340256,145.144791L128.997864,145.143784L127.684898,145.423065L126.459167,145.970352L125.374718,146.761490L124.479362,147.761627L123.812531,148.926666L123.403687,150.205231L123.270775,151.541016L123.293800,152.240295L123.571037,154.061935L124.357727,155.728134L129.022888,162.592728L129.801788,163.547455L130.751923,164.331924L131.836899,164.915924L133.014908,165.277023L134.240799,165.401382L135.467361,165.284195L136.647461,164.929947L137.735809,164.352310L138.690567,163.573425L139.475006,162.623260L140.059021,161.538315L140.420120,160.360260L140.544464,159.134399L140.427277,157.907867L140.073059,156.727737L139.495407,155.639389L135.765930,150.342087L132.270905,157.340714L125.704163,156.436584L128.385376,159.696243L132.573196,166.438858L135.711029,170.771454L136.599548,171.768127L137.684372,172.546661L138.913010,173.069519L140.226196,173.311356L141.560455,173.260574L142.851440,172.919571L144.036789,172.304855L145.059219,171.446091L145.869461,170.384735L146.428268,169.172073L146.434280,168.836823L146.720596,167.439468L146.667618,166.014084L146.278381,164.641800L145.575073,163.400879L143.046219,160.289169z" fill="#000000" stroke="none" fill-opacity="1" />
				<path d="M132.164246,146.297562L131.118332,146.323471L130.097565,146.552902L129.141129,146.977066L128.285858,147.579697L127.564590,148.337570L127.005051,149.221603L126.628731,150.197815L126.450081,151.228683L126.475929,152.274612L126.705383,153.295364L127.129601,154.251785L127.732185,155.107040L128.490067,155.828308L129.374115,156.387878L130.350311,156.764191L131.381165,156.942856L132.138336,156.838959L131.468628,156.574051L142.177475,167.270203L146.976776,170.616577L149.279358,171.537033L151.173065,172.024475L152.850311,172.051575L154.466415,171.601715L155.888428,170.711914L156.523254,170.221848L157.651382,168.942154L158.365311,167.392792L158.685440,166.609024L158.833389,163.856903L158.172882,160.187180L155.144989,148.696426L154.885284,145.781418L155.013748,143.389954L154.999100,143.489471L154.476593,144.053421L155.463562,143.557953L160.069321,142.290405L160.152222,142.184875L161.225906,142.009766L162.368408,141.895355L163.466614,141.560242L164.478394,141.017334L165.364777,140.287445L166.091782,139.398682L166.631393,138.385132L166.962906,137.285828L167.073608,136.142975L166.959198,135.000458L166.624054,133.902191L166.081146,132.890472L165.351303,132.004059L164.462509,131.277100L163.449005,130.737457L162.349655,130.405945L161.206772,130.295288L160.075073,130.123444L159.031479,129.990631L151.493210,131.952271L147.876373,133.735657L145.626266,135.648743L143.606613,139.083954L142.664490,145.317307L143.138000,150.438599L146.459503,162.570267L146.988556,164.600189L147.781464,162.515564L150.535797,160.608673L152.288589,160.669083L149.680878,158.709763L138.420456,148.491135L136.657394,147.256958L134.199951,146.447327z" fill="#000000" stroke="none" fill-opacity="1" />
			</g>
		</g>
	</g>
</svg>
