<?xml version="1.0" encoding="UTF-8"?>
<!-- Generator: Blender, SVG Export for Grease Pencil - v2.0 -->
<!DOCTYPE svg PUBLIC "-//W3C//DTD SVG 1.1//EN" "http://www.w3.org/Graphics/SVG/1.1/DTD/svg11.dtd">
<svg version="1.1" x="0px" y="0px" xmlns="http://www.w3.org/2000/svg" width="400.000000px" height="400.000000px" viewBox="0 0 400.000000 400.000000">
	<g id="blender_frame.1">
		<g id="blender_object.Stroke.1.uuid_0x0">
			<g id="layer.Contact.uuid_0x1">
				<path d="M200.559982,102.254639L199.995316,101.445587L199.283615,100.762299L198.452301,100.230927L197.533310,99.871979L196.561951,99.699219L195.575516,99.719269L194.611969,99.931366L193.708313,100.327393L192.899292,100.892059L192.215958,101.603760L191.684631,102.435089L191.325653,103.354065L191.152908,104.325409L191.172958,105.311829L191.385056,106.275421L191.781067,107.179077L194.051102,111.423767L196.456085,119.940552L199.937271,134.625122L203.293839,145.510529L203.634949,147.302155L203.580658,148.613541L202.490784,151.269211L201.851074,152.388596L201.911179,152.228348L201.665024,152.268066L201.376297,152.288910L198.852631,151.892776L189.459244,148.662247L183.501312,147.542328L178.847595,147.097122L175.417755,147.397354L169.788589,149.572952L167.710098,151.001785L165.461395,153.279510L163.249222,156.670395L161.670975,162.803757L161.490128,165.744904L161.658447,170.236740L162.486984,175.147079L165.281738,185.560425L166.515732,191.325638L170.232986,202.962494L174.389633,213.763840L176.211853,217.407440L179.971909,223.177231L185.436951,229.497421L188.936554,232.855637L200.659348,242.317398L204.304474,246.142914L209.021774,248.982666L215.352676,250.858292L219.422287,250.954285L223.370865,249.753372L225.935211,247.989487L227.319305,246.436783L228.871063,243.458786L229.092606,242.518875L228.872177,237.149353L226.219131,226.962204L226.037537,225.114700L226.078720,224.644043L227.011673,221.912521L228.683105,218.453033L226.941956,219.610199L224.750961,219.820999L225.016113,220.128799L231.306808,225.394043L234.662735,228.903687L239.289780,234.240097L244.857742,241.982422L255.506241,252.530930L258.413757,255.782898L259.942657,258.970795L260.163513,260.007507L260.064453,260.253723L258.065948,266.150055L254.227600,270.144104L249.137863,273.515045L242.337631,278.760376L239.677902,280.386963L238.549728,280.630280L233.098495,280.465820L229.056915,279.504608L216.903183,275.587067L207.893127,271.030304L198.180557,264.278595L195.124939,261.647614L189.321121,255.147400L182.302979,248.467392L174.385971,238.239807L161.958786,217.465042L157.149078,206.429047L150.244644,191.986847L147.629562,185.067703L144.425003,173.906113L143.088760,161.430115L143.194092,156.185867L143.795395,151.219757L145.683502,140.910553L147.026138,136.701447L148.113495,134.183594L155.148926,121.456909L161.905853,111.303894L167.480850,105.960175L168.641098,105.123291L174.660751,102.193451L181.403900,99.894836L183.355606,99.697876L184.214188,100.005463L184.721085,100.348389L185.947983,101.521881L188.751648,105.629944L191.727844,111.905914L200.265610,130.670929L200.867432,131.769836L201.672073,132.730164L202.648605,133.515076L203.759506,134.094421L204.962082,134.445892L206.210129,134.556000L207.455658,134.420502L208.650818,134.044647L209.749695,133.442810L210.710052,132.638184L211.494965,131.661652L212.074295,130.550751L212.425766,129.348175L212.535873,128.100128L212.400391,126.854614L212.024490,125.659454L204.339828,106.360596L200.887070,99.208191L196.843292,93.173645L193.645218,89.926605L190.558502,87.859528L185.903854,86.289886L179.495743,86.385254L169.889816,89.395599L162.113647,93.185913L159.155243,95.212982L151.969391,101.983551L143.647278,114.135162L136.070389,127.930359L134.437561,131.624298L132.622864,137.184601L130.342331,148.923584L129.591858,154.884659L129.446381,161.612167L130.923981,175.939102L134.590210,189.099442L137.583282,197.082565L144.695129,211.994797L149.644989,223.316666L162.925812,245.578705L171.886063,257.199768L179.371750,264.414276L185.278763,271.042786L189.576355,274.808777L200.499374,282.469116L211.215149,287.997192L225.176956,292.553436L230.744003,293.845551L239.094147,294.142029L243.705368,293.298370L249.547592,290.246063L256.878571,284.642670L262.353333,280.924042L268.806183,274.343323L270.297577,271.883179L273.029755,264.017242L273.615204,260.794067L272.940765,255.542007L270.121857,249.148315L265.439636,243.467911L255.451172,233.658997L250.059540,226.128967L244.727905,219.940262L240.733032,215.787796L232.820251,209.192093L228.397247,207.006958L224.959839,206.499893L223.946396,206.636597L221.143539,207.624130L220.223969,208.204147L217.910355,210.671967L215.010651,216.026810L213.205475,220.959488L212.637650,224.175690L212.921021,228.780899L215.634399,239.147263L215.883118,240.631958L216.416992,238.862671L217.158630,237.975891L217.557663,237.700302L217.813202,237.687653L214.532150,236.722916L213.151932,236.088669L210.016708,232.723938L198.008133,222.951111L195.368332,220.411133L190.945038,215.345688L187.991592,210.938736L186.797943,208.615067L183.002975,198.643921L179.601730,188.174484L178.412460,182.564697L175.671860,172.456223L175.063889,169.188065L174.916260,165.866394L174.917603,164.863251L175.349548,162.400879L175.577011,162.077545L176.294632,161.263306L178.109116,160.519684L178.409424,160.513779L181.426285,160.802628L185.655716,161.574051L195.205673,164.726166L200.354401,165.543640L203.950851,165.341934L207.525055,164.190887L210.860870,161.859558L213.929031,157.502792L216.003464,152.228226L216.526199,147.310379L216.084885,143.048676L212.109756,131.318542L208.137100,116.561218L203.455826,107.284485z" fill="#000000" stroke="none" fill-opacity="1" />
			</g>
		</g>
	</g>
</svg>
