<?xml version="1.0" encoding="UTF-8"?>
<!-- Generator: Blender, SVG Export for Grease Pencil - v2.0 -->
<!DOCTYPE svg PUBLIC "-//W3C//DTD SVG 1.1//EN" "http://www.w3.org/Graphics/SVG/1.1/DTD/svg11.dtd">
<svg version="1.1" x="0px" y="0px" xmlns="http://www.w3.org/2000/svg" width="400.000000px" height="400.000000px" viewBox="0 0 400.000000 400.000000">
	<g id="blender_frame.1">
		<g id="blender_object.Stroke.1.uuid_0x0">
			<g id="layer.Home.uuid_0x1">
				<path d="M139.983521,201.065033L139.756409,200.031097L139.331955,199.061356L138.726440,198.193069L137.963196,197.459579L137.071503,196.889084L136.085648,196.503510L135.043488,196.317703L133.985123,196.338745L132.951218,196.565857L131.981476,196.990341L131.113144,197.595840L130.379669,198.359100L129.809219,199.250793L129.423645,200.236649L129.237808,201.278793L129.258865,202.337143L129.561508,206.765579L129.646469,220.902451L129.698013,246.020233L128.203918,279.213776L126.986290,298.126831L127.984764,315.619385L128.927536,319.105927L130.097015,321.185211L131.924255,322.718903L132.663055,323.123199L135.760696,323.992676L137.665955,324.058075L149.748825,322.959015L159.374252,322.775787L174.089645,323.415344L175.402283,323.341553L176.675278,323.013123L177.859741,322.442627L178.910126,321.652039L179.786148,320.671692L180.454041,319.539307L180.888199,318.298370L181.071899,316.996582L180.998123,315.683960L180.669662,314.410950L180.099197,313.226501L179.308609,312.176086L178.328247,311.300110L177.195862,310.632202L175.954910,310.198059L174.653137,310.014343L159.725708,309.407440L149.219223,309.632202L137.636902,310.755890L137.749695,310.953796L140.348068,312.682678L141.116669,313.831543L139.933731,298.473816L140.929794,279.905914L142.131714,246.370621L141.764328,220.713928L140.791977,206.121490z" fill="#000000" stroke="none" fill-opacity="1" />
				<path d="M261.610321,307.719269L260.286743,307.952179L259.033997,308.438843L257.900269,309.160522L256.929199,310.089539L256.157959,311.190155L255.616272,312.420105L255.324905,313.732056L255.295120,315.075684L255.528046,316.399261L256.014709,317.651978L256.736420,318.785706L257.665405,319.756805L258.766022,320.528046L259.995972,321.069733L261.307953,321.361053L262.651520,321.390869L268.680145,320.948181L272.308868,319.976624L274.066864,319.063416L275.494080,317.689514L276.473450,315.967468L277.159027,314.281006L277.623871,311.312439L277.340576,307.279694L277.736145,279.691254L278.874268,259.945099L279.041565,229.595184L278.417114,213.868378L278.824036,200.228119L278.341339,196.036240L277.195618,193.007034L269.715118,181.984238L261.702179,171.674576L247.145920,151.617142L234.369583,132.592896L221.118515,114.736389L208.989288,96.114105L205.126053,90.779449L203.902939,88.340729L202.476776,86.439178L200.505936,85.110382L199.929977,84.846466L198.340744,84.338776L196.677078,84.213104L195.029617,84.476410L193.488022,85.114319L192.136246,86.092133L191.047806,87.356628L190.282089,88.838867L188.719650,93.156067L177.735336,110.994385L166.857529,126.659912L155.002594,144.506744L140.360748,168.492386L132.009216,180.802048L128.397568,187.172073L124.359558,195.443344L123.511459,197.839722L123.175331,199.538712L123.260712,201.268524L123.762558,202.926147L124.650932,204.412888L125.872917,205.640167L126.323105,205.990448L127.496269,206.737534L128.792603,207.241425L130.162384,207.482681L131.552856,207.452103L132.910706,207.150833L134.183670,206.590454L135.322845,205.792496L136.284439,204.787628L137.031540,203.614471L137.535400,202.318115L137.776688,200.948349L137.746094,199.557846L137.444839,198.200027L136.884476,196.927063L136.086487,195.787903L135.081635,194.826263L137.046356,197.999908L137.325500,201.248291L140.924973,193.981583L143.967102,188.558289L152.263351,176.363129L166.944183,152.271774L178.592072,134.733826L189.582291,118.985901L201.195297,100.004852L199.708099,97.963989L192.625229,96.798889L192.704086,97.787567L197.133896,104.051941L209.323242,122.694061L222.694458,140.681000L235.577698,159.592804L250.519058,179.972626L258.341309,189.990479L264.957336,199.367142L264.875671,200.359436L264.464111,213.718216L265.255463,229.705536L265.142761,259.318542L263.938507,279.026886L263.507843,307.345856L263.836823,310.674255L265.232666,308.458405L266.754578,307.368896z" fill="#000000" stroke="none" fill-opacity="1" />
				<path d="M174.707367,298.015503L174.897339,299.071350L175.289658,300.069885L175.869232,300.972656L176.613800,301.745056L177.494720,302.357361L178.478180,302.786011L179.526398,303.014557L180.599030,303.034241L181.654877,302.844269L182.653427,302.451935L183.556213,301.872375L184.328598,301.127808L184.940887,300.246857L185.369537,299.263397L185.598083,298.215210L185.617752,297.142578L184.147308,274.316803L184.303680,259.927460L185.004257,253.094666L185.442520,251.107742L186.883545,248.373810L188.159988,246.764526L190.183167,244.887589L194.315552,241.735992L196.394516,240.709900L198.048691,240.185089L201.410248,239.569839L203.324249,239.397415L205.975662,239.892044L213.016342,242.213211L217.354492,244.523590L218.028824,245.036972L218.180389,245.322876L219.580597,251.175568L221.002136,260.180634L226.845367,306.846924L226.933517,307.543365L227.813644,310.808411L228.341415,311.969604L229.099060,312.995667L230.053467,313.841797L231.162949,314.470978L232.379013,314.855774L233.648483,314.979309L234.915924,314.836243L236.125900,314.432739L237.225555,313.786499L238.166809,312.925781L238.908554,311.888123L239.418335,310.718933L239.673874,309.469330L239.664047,308.193878L239.389282,306.948364L239.189041,306.330963L239.334091,306.230164L233.360474,258.538483L231.903442,248.971832L230.031754,241.423019L228.226227,237.860992L225.056015,234.648438L218.488937,230.916885L209.414688,227.786621L204.400726,227.042938L200.027542,227.294281L195.392792,228.124863L192.109619,229.160660L188.274185,231.038605L182.469666,235.354935L179.410431,238.309845L176.904526,241.434097L174.422562,246.536957L173.289444,250.787720L172.522186,259.078247L172.491501,274.501526z" fill="#000000" stroke="none" fill-opacity="1" />
				<path d="M185.517517,289.443970L184.933273,288.453796L184.167084,287.596649L183.248367,286.905457L182.212463,286.406738L181.099182,286.119751L179.951309,286.055420L178.812943,286.216309L177.727783,286.596161L176.737625,287.180420L175.880508,287.946625L175.189301,288.865326L174.690598,289.901215L174.403564,291.014496L174.339294,292.162384L174.500122,293.300751L174.879990,294.385895L175.480026,295.718933L175.380524,297.528625L175.000137,309.465912L175.394623,309.247162L177.384293,307.911072L177.141037,307.805573L175.861435,307.941467L174.632874,308.324341L173.502640,308.939575L172.514175,309.763458L171.705383,310.764404L171.107437,311.903839L170.743271,313.138062L170.626877,314.419617L170.762756,315.699249L171.145645,316.927795L171.760864,318.058014L172.584763,319.046509L173.585663,319.855286L174.725159,320.453217L175.959366,320.817383L177.240936,320.933777L179.170822,321.028381L182.428070,320.151001L183.801651,319.378540L185.582779,317.900574L186.753006,315.903748L187.834518,312.986481L187.852448,297.126495L187.079025,293.229370z" fill="#000000" stroke="none" fill-opacity="1" />
				<path d="M232.611969,295.513550L231.817261,295.198883L230.976456,295.045319L230.121857,295.058777L229.286270,295.238647L228.501862,295.578094L227.798737,296.064056L227.203934,296.677856L226.740280,297.395874L226.425659,298.190582L226.272095,299.031403L226.285538,299.886017L226.465408,300.721558L226.804871,301.505981L227.290817,302.209106L227.904617,302.803925L228.622665,303.267578L228.589005,303.167908L227.080109,302.738464L227.198990,310.286743L228.709610,314.101807L230.942413,316.575806L232.556046,317.556732L234.997253,318.504944L244.854279,320.283325L251.441147,320.446320L258.163696,321.237122L264.941498,320.765411L267.906494,319.777374L269.004028,319.106903L269.949646,318.235199L270.707062,317.195770L271.247131,316.028564L271.549103,314.778412L271.601410,313.493347L271.401978,312.222778L270.958496,311.015564L270.288025,309.918030L269.416321,308.972412L268.376892,308.214996L267.209686,307.674927L265.959534,307.372955L264.674500,307.320679L263.403931,307.520081L262.196716,307.963562L262.511230,307.924408L258.917725,308.277588L252.608139,307.579865L246.566269,307.303406L238.371582,306.200714L239.269562,306.815887L239.522308,307.213989L237.321640,299.691895L236.290695,297.322266L234.898804,297.128418L233.418472,295.890167z" fill="#000000" stroke="none" fill-opacity="1" />
			</g>
		</g>
	</g>
</svg>
