<?xml version="1.0" encoding="UTF-8"?>
<!-- Generator: Blender, SVG Export for Grease Pencil - v2.0 -->
<!DOCTYPE svg PUBLIC "-//W3C//DTD SVG 1.1//EN" "http://www.w3.org/Graphics/SVG/1.1/DTD/svg11.dtd">
<svg version="1.1" x="0px" y="0px" xmlns="http://www.w3.org/2000/svg" width="400.000000px" height="400.000000px" viewBox="0 0 400.000000 400.000000">
	<g id="blender_frame.1">
		<g id="blender_object.Stroke.1.uuid_0x0">
			<g id="layer.Links.uuid_0x1">
				<path d="M207.876266,198.510605L208.350800,199.401489L208.990021,200.182693L209.769394,200.824158L210.658875,201.301254L211.624405,201.595688L212.628769,201.696060L213.633469,201.598557L214.599823,201.306961L215.490692,200.832413L216.271866,200.193192L216.913361,199.413849L217.390457,198.524323L217.684875,197.558838L217.785263,196.554443L217.687775,195.549774L217.396149,194.583405L216.966797,192.639389L215.654175,190.734634L214.677322,189.790894L211.706421,187.626984L207.773346,186.248657L199.449661,185.427841L192.101212,186.088806L184.800751,188.347443L178.967346,191.123917L167.695114,197.187012L159.586472,203.007126L150.542130,211.073090L143.043060,218.615540L138.316315,225.149658L125.799469,244.282196L123.490021,249.007095L120.916267,258.148926L120.938515,268.688721L121.761253,273.138794L123.480965,278.049713L125.918533,283.285034L131.259018,290.763977L134.163147,294.087280L136.714142,296.404724L139.774170,298.372345L144.983047,300.291168L153.548752,301.756897L159.398834,301.924652L166.394028,301.161438L175.297806,299.413116L183.198181,297.360352L196.473740,291.895569L201.774979,288.521118L206.703156,283.937439L213.761993,274.284821L222.535797,264.457275L225.525284,259.793304L227.178741,254.579453L227.370697,253.181000L227.267654,251.773209L226.874222,250.417618L226.207535,249.173416L225.296722,248.095032L224.181610,247.229584L222.910950,246.614899L221.540207,246.277847L220.129364,246.233124L218.740051,246.482727L217.433014,247.015732L216.265335,247.808823L215.288071,248.827362L214.543930,250.026825L214.065414,251.354797L213.617722,253.671494L212.126144,255.969131L203.502548,265.628418L197.013031,274.737122L193.870041,277.752625L190.710663,279.897675L179.425842,284.724731L172.549240,286.484436L164.589432,288.049622L159.289856,288.678650L155.215790,288.507416L148.686096,287.492584L146.014420,286.622223L145.031952,286.011841L143.904709,285.015259L141.881790,282.623291L137.728622,277.003418L135.956024,273.189026L134.735535,269.854492L134.215851,267.672546L134.014282,260.645264L135.710938,254.172287L137.164505,251.194305L149.271835,232.771271L152.932755,227.638840L159.622437,220.869476L167.723434,213.537216L174.469818,208.528000L184.819656,202.587265L189.273605,200.314194L194.174576,198.611115L199.323578,197.997894L205.288223,197.998184L206.859314,198.237488L207.698410,198.289246L207.365021,197.851532z" fill="#000000" stroke="none" fill-opacity="1" />
				<path d="M187.506744,221.910019L187.478012,220.864182L187.245819,219.844025L186.819046,218.888779L186.214111,218.035141L185.454300,217.315933L184.568756,216.758774L183.591492,216.385086L182.560181,216.209213L181.514313,216.237946L180.494171,216.470154L179.538940,216.896912L178.685287,217.501816L177.966080,218.261658L177.408920,219.147217L177.035202,220.124451L176.859360,221.155792L175.738892,230.605362L176.095688,235.202393L177.567764,240.720383L179.982712,244.514557L182.752991,247.042542L186.448303,248.798691L190.357635,249.497620L196.018890,248.826920L209.007614,244.722885L215.971985,241.047958L230.920715,231.327087L242.704681,221.689178L249.082489,213.660858L258.478394,199.989609L264.916504,193.934784L270.975830,186.923355L274.485504,181.948318L277.793243,175.697815L280.372833,171.782883L284.885010,161.789551L285.959351,157.835281L286.512909,153.402725L285.863220,146.014648L284.956635,142.113556L283.336395,138.092987L278.590454,131.029175L271.740265,124.153381L266.393402,120.949341L256.703583,117.726318L253.173111,117.095856L247.368530,117.262695L242.835632,118.130585L238.399841,120.015350L228.726196,125.649567L223.802277,129.274902L216.184128,137.337677L210.933868,144.052658L207.723511,147.637527L201.368530,158.287903L196.881287,164.974335L195.389221,166.998138L201.523911,166.782455L204.859802,171.801468L204.683258,170.597000L204.275131,169.450104L203.651093,168.404892L202.835159,167.501495L201.858627,166.774612L200.759079,166.252258L199.578720,165.954422L198.362961,165.892593L197.158478,166.069122L196.011612,166.477234L194.966385,167.101273L194.062988,167.917252L193.336121,168.893768L192.813751,169.993301L192.515915,171.173660L192.454071,172.389420L192.007721,173.163116L192.233261,174.597000L192.762665,175.948517L193.571014,177.154083L194.620270,178.157028L195.861115,178.910126L197.235153,179.377991L198.677750,179.538574L200.121017,179.384369L201.497116,178.922577L202.741287,178.174973L204.167648,177.115250L207.625671,173.059006L212.691452,165.686554L218.235367,156.102783L221.161362,152.867081L226.279510,146.281525L232.341080,139.686340L235.879440,137.068268L244.393753,132.022003L246.333450,131.066223L248.589828,130.625702L251.821823,130.438202L253.150833,130.649872L260.525421,132.958313L263.065399,134.343597L268.001282,139.201172L271.377747,143.942474L272.151337,145.795807L272.644501,147.910965L273.215363,152.717453L272.962219,155.108398L272.515869,156.971085L268.996460,164.970291L266.535095,168.676880L263.251160,174.754318L260.716553,178.597595L255.568069,184.556320L248.905472,190.905838L238.588257,205.810379L233.759232,212.062561L223.491516,220.697632L209.624237,229.918579L204.407211,232.741516L193.519501,236.564560L190.782211,237.073776L190.045593,237.096603L189.740875,237.010834L189.155106,236.524277L188.741806,236.144455L187.763412,233.132126L187.295410,230.828522z" fill="#000000" stroke="none" fill-opacity="1" />
			</g>
		</g>
	</g>
</svg>
