<?xml version="1.0" encoding="UTF-8"?>
<!-- Generator: Blender, SVG Export for Grease Pencil - v2.0 -->
<!DOCTYPE svg PUBLIC "-//W3C//DTD SVG 1.1//EN" "http://www.w3.org/Graphics/SVG/1.1/DTD/svg11.dtd">
<svg version="1.1" x="0px" y="0px" xmlns="http://www.w3.org/2000/svg" width="400.000000px" height="400.000000px" viewBox="0 0 400.000000 400.000000">
	<g id="blender_frame.1">
		<g id="blender_object.Stroke.1.uuid_0x0">
			<g id="layer.Contact-Alt.uuid_0x1">
				<path d="M243.002121,128.861542L241.990280,129.176361L241.059296,129.682587L240.244965,130.360626L239.578552,131.184601L239.085693,132.122711L238.785309,133.138916L238.688980,134.194214L238.800385,135.248047L239.115204,136.259918L239.621384,137.190887L240.299484,138.005219L241.123413,138.671631L242.061523,139.164490L243.077728,139.464844L244.133041,139.561188L245.186874,139.449799L247.034302,139.519196L248.212601,139.142487L249.285217,138.526276L250.204224,137.698212L250.928436,136.695343L251.425476,135.562531L251.673050,134.350525L251.660126,133.113525L251.387238,131.907013L250.866608,130.784851L250.121536,129.797363L249.185425,128.988708L248.347824,127.724426L246.547256,126.855011L244.566360,126.582825L238.853973,126.557861L221.553467,125.719513L193.627472,126.561737L177.453491,128.229248L163.851028,128.356567L155.703842,128.775604L131.858231,128.883331L118.685646,131.116760L110.077614,133.612579L101.946732,136.799927L95.070526,141.279663L91.171333,145.192810L87.699585,150.189285L84.909775,156.297287L81.515785,170.914124L79.062263,187.455170L79.024696,206.896362L79.882721,216.857727L80.527161,232.071579L81.357117,241.758820L81.540108,250.467758L83.145279,268.003784L85.602280,279.669434L87.886742,284.099609L90.503189,286.851318L94.644806,289.017029L100.140999,290.030334L104.573845,291.459442L127.558754,295.616882L136.664032,296.261841L144.097992,295.925476L152.139664,296.505829L168.699493,296.225098L176.786942,295.479340L188.588379,293.867981L198.575668,293.723938L216.318604,291.985352L223.268112,290.899963L230.490677,290.386200L235.141266,290.622894L235.482407,290.754974L237.589722,292.014496L242.425232,295.963837L250.231766,304.022247L255.724243,310.280457L262.418091,316.913483L265.221924,318.681824L267.003967,319.260529L268.875885,319.339813L270.700500,318.913940L272.343903,318.014038L273.320129,317.310791L274.605865,316.074524L275.533661,314.551178L276.042114,312.841522L276.321228,311.014832L276.588409,304.657745L277.847900,297.089935L278.474335,287.629517L278.301544,287.872986L277.373260,288.891968L276.152252,289.508087L278.178589,289.337372L282.297516,289.529968L288.000793,290.262512L292.839905,290.300873L302.004028,288.804932L305.099945,287.425842L307.000549,285.928711L309.003876,283.625671L314.655396,273.378357L315.471619,270.718445L316.515747,260.021545L317.752045,252.162537L317.849243,246.194855L317.432983,240.384460L317.513885,229.405289L318.114990,220.248672L318.837128,214.429016L319.060059,204.739471L319.855408,197.968460L319.761261,193.327194L320.339172,185.157532L320.073334,180.615143L320.324890,175.014648L318.598724,159.901138L315.658173,151.367279L311.681671,144.209625L305.936768,137.438080L299.556152,132.139404L296.552948,130.337250L290.548615,128.737915L285.490143,128.267273L263.688171,125.175598L253.816605,125.060516L247.321838,125.491272L242.740128,125.091064L230.490082,124.963287L226.444931,124.148834L223.440369,123.997559L222.125595,124.262878L220.779861,124.394287L219.485596,124.785645L218.292572,125.422028L217.246597,126.278961L216.387909,127.323456L215.749481,128.515381L215.355865,129.808990L215.222183,131.154510L215.353561,132.500244L215.744965,133.794556L216.381332,134.987579L217.238235,136.033508L218.282745,136.892212L219.474686,137.530640L220.768280,137.924255L222.113800,138.057953L223.204849,138.326477L224.386993,138.337677L228.478546,139.096222L241.822571,139.344482L246.699371,139.747711L254.015320,139.266998L262.166016,139.316833L283.702179,142.392548L288.078491,142.729218L290.558685,143.175385L291.108734,143.556427L295.731659,147.279572L299.838257,151.790955L302.638702,156.764343L304.671478,162.409119L306.222015,175.008316L305.991150,180.437576L306.270813,184.692719L305.719330,192.742920L305.864014,196.899673L305.109436,203.478378L304.917633,213.112137L304.248230,218.772415L303.592285,228.706970L303.552856,240.605194L304.000427,246.436829L304.006195,250.523468L302.777222,258.059052L301.838165,267.989990L297.589691,275.748322L297.732880,275.613678L297.978302,275.603058L292.213226,276.424927L289.302551,276.414886L283.741333,275.701477L278.154083,275.476379L273.292511,275.987061L270.127808,277.124420L267.386414,279.412781L265.946381,281.703339L265.185181,283.647217L264.094147,295.189392L262.879089,302.879791L262.607361,309.234558L263.275787,308.129852L267.584229,305.563599L271.280670,306.345123L266.015839,300.976593L260.620850,294.736023L252.178329,285.949280L245.945526,280.860168L241.933319,278.405945L238.728439,277.147797L230.844391,276.472687L222.017441,276.991150L214.715256,278.136505L198.072098,279.862305L187.960785,280.012817L175.332428,281.710480L168.170197,282.393066L152.795441,282.705505L144.632202,282.152832L137.176147,282.520508L129.605270,281.992828L108.300400,278.218445L103.790947,276.775574L99.084900,276.005371L98.921486,276.000916L99.095268,276.071960L98.780174,275.624756L96.879456,266.319702L95.371674,249.925903L95.180008,241.238510L94.343323,231.326248L93.671196,216.104050L92.827629,206.566055L92.780159,188.955750L95.028183,173.679199L97.804146,161.181137L99.450111,157.361588L101.590965,154.222488L103.432632,152.236343L107.720901,149.329819L114.285088,146.777359L121.464363,144.662018L132.537262,142.727875L155.961914,142.495178L164.145035,142.051605L177.926346,141.884521L194.341476,140.128418L221.262192,139.084686L238.520615,139.654388L242.843124,139.124756L240.124100,132.622681z" fill="#000000" stroke="none" fill-opacity="1" />
			</g>
		</g>
	</g>
</svg>
