<?xml version="1.0" encoding="UTF-8"?>
<!-- Generator: Blender, SVG Export for Grease Pencil - v2.0 -->
<!DOCTYPE svg PUBLIC "-//W3C//DTD SVG 1.1//EN" "http://www.w3.org/Graphics/SVG/1.1/DTD/svg11.dtd">
<svg version="1.1" x="0px" y="0px" xmlns="http://www.w3.org/2000/svg" width="400.000000px" height="400.000000px" viewBox="0 0 400.000000 400.000000">
	<g id="blender_frame.1">
		<g id="blender_object.Stroke.1.uuid_0x0">
			<g id="layer.Fills.uuid_0x1" />
			<g id="layer.Lines.uuid_0x2">
				<path d="M83.935219,264.141663L83.936241,265.113770L84.126900,266.066956L84.499863,266.964630L85.040764,267.772308L85.728844,268.458984L86.537651,268.998138L87.436134,269.369202L88.389732,269.557831L89.361786,269.556824L90.314987,269.366150L91.212685,268.993225L92.020370,268.452332L92.706970,267.764221L93.246170,266.955383L93.617226,266.056946L93.805893,265.103333L95.509506,250.282166L96.218758,184.022797L95.399048,169.267700L96.686890,138.509613L99.747856,123.917175L101.358749,121.089935L104.749512,119.118805L108.004951,118.264313L149.481613,117.422394L163.538742,118.355682L166.256104,119.795135L173.811569,130.973297L179.582809,136.140778L188.226685,140.514343L197.144653,142.910614L217.462219,141.992615L241.218491,142.030212L293.163177,143.726227L294.486176,144.031738L297.549194,146.142563L307.153809,158.569061L309.256409,165.024323L312.711182,179.773697L310.837128,202.381943L308.727600,215.552521L306.235168,239.781723L304.960938,268.308685L303.659729,271.237061L297.146118,277.619659L289.181091,283.127197L282.818726,285.248383L274.074463,286.124512L253.430710,283.492828L223.381226,284.621643L194.608383,283.356476L185.288330,284.683777L174.710968,287.981110L151.874100,286.229706L102.647766,285.485687L96.892883,283.193054L94.551613,281.010864L94.331390,280.320221L92.805031,271.534119L93.673851,255.860733L93.649368,254.652069L93.389565,253.471390L92.904427,252.364105L92.212540,251.372726L91.340569,250.535370L90.321999,249.884247L89.195969,249.444305L88.005737,249.232529L86.797096,249.257004L85.616402,249.516815L84.509117,250.001968L83.517723,250.693832L82.680397,251.565796L82.029243,252.584381L81.589317,253.710403L81.377533,254.900635L79.739761,271.330139L81.536507,283.318665L83.098251,287.415619L84.602287,289.567261L88.737633,293.515686L98.772842,298.134979L101.219376,298.637848L151.025940,299.087799L174.917374,301.264648L177.486725,300.973022L187.838501,297.651062L194.704803,296.570557L223.103088,297.723999L252.387314,296.475281L273.220398,298.886139L284.789520,297.975525L294.104706,294.934113L304.975708,288.013123L313.553131,279.140442L314.856934,277.150208L316.857941,272.042877L318.342590,240.826767L320.702606,217.320068L322.904755,204.060135L324.238464,179.725372L320.758575,162.133301L317.858215,153.871094L306.151489,138.311920L300.384094,134.036987L296.145081,132.225220L241.562912,129.677704L217.261398,129.844086L199.274246,130.838654L192.878616,129.176025L186.823380,126.465424L183.332474,123.392151L175.217056,111.881317L173.208237,110.069153L168.255310,107.270538L165.842743,106.531250L150.237808,104.995209L106.956207,105.709900L100.544197,107.364624L93.601562,111.291931L91.480400,113.435303L88.533852,118.429199L84.521774,136.495392L83.199333,169.085419L84.126617,184.223328L85.099274,249.528442z" fill="#000000" stroke="none" fill-opacity="1" />
				<path d="M95.704079,165.065598L94.634727,164.873047L93.548325,164.892822L92.486671,165.124146L91.490578,165.558136L90.598251,166.178146L89.844040,166.960297L89.256935,167.874603L88.859421,168.885849L88.666893,169.955200L88.686630,171.041565L88.917999,172.103226L89.351990,173.099335L89.971977,173.991684L90.754150,174.745880L91.668419,175.332977L92.679672,175.730469L97.841866,177.322662L125.190247,181.535736L144.544006,180.538239L165.148010,181.451767L167.753250,180.995667L173.072525,178.846725L193.601288,164.056427L198.263992,158.698257L203.946625,148.000824L205.610565,145.606277L205.786804,145.686584L210.093170,144.395050L211.209091,143.948364L212.216461,143.292603L213.076508,142.452881L213.756226,141.461517L214.229462,140.356567L214.478043,139.180573L214.492432,137.978638L214.272034,136.796997L213.825378,135.681061L213.169571,134.673706L212.329880,133.813660L211.338470,133.133942L210.233551,132.660706L209.057556,132.412140L207.855606,132.397736L206.673981,132.618103L201.929001,133.938965L199.259430,135.050812L196.929581,136.865875L193.818771,140.756683L188.295654,151.288467L185.635666,154.470795L167.670700,167.629150L164.331589,169.119980L144.734177,168.237839L126.242119,169.416397L100.547791,166.325439z" fill="#000000" stroke="none" fill-opacity="1" />
			</g>
		</g>
	</g>
</svg>
