<svg id="ezmQEsx5krU1" xmlns="http://www.w3.org/2000/svg" xmlns:xlink="http://www.w3.org/1999/xlink" viewBox="0 0 300 300" shape-rendering="geometricPrecision" text-rendering="geometricPrecision" project-id="34340c0ed0694e01a91e75db417e5ee4" export-id="02bfc360d2214a92a0e66496aa5973ba" cached="false">
<style><![CDATA[
#ezmQEsx5krU2_to {animation: ezmQEsx5krU2_to__to 3000ms linear 1 normal forwards}@keyframes ezmQEsx5krU2_to__to { 0% {transform: translate(115.711537px,144.207123px);animation-timing-function: cubic-bezier(0,0,0.075,0.995)} 40% {transform: translate(87.0929px,126.735901px)} 100% {transform: translate(87.0929px,126.735901px)}} #ezmQEsx5krU2_tr {animation: ezmQEsx5krU2_tr__tr 3000ms linear 1 normal forwards}@keyframes ezmQEsx5krU2_tr__tr { 0% {transform: rotate(0deg);animation-timing-function: cubic-bezier(0,0,0.075,0.995)} 40% {transform: rotate(-14.813556deg)} 100% {transform: rotate(-14.813556deg)}} #ezmQEsx5krU7_to {animation: ezmQEsx5krU7_to__to 3000ms linear 1 normal forwards}@keyframes ezmQEsx5krU7_to__to { 0% {transform: translate(165.56147px,137.370564px);animation-timing-function: cubic-bezier(0,0,0.075,0.995)} 33.333333% {transform: translate(185.330422px,113.380853px)} 100% {transform: translate(185.330422px,113.380853px)}} #ezmQEsx5krU7_tr {animation: ezmQEsx5krU7_tr__tr 3000ms linear 1 normal forwards}@keyframes ezmQEsx5krU7_tr__tr { 0% {transform: rotate(0deg);animation-timing-function: cubic-bezier(0,0,0.075,0.995)} 33.333333% {transform: rotate(12deg)} 100% {transform: rotate(12deg)}}
]]></style>
<g id="ezmQEsx5krU2_to" transform="translate(115.711537,144.207123)"><g id="ezmQEsx5krU2_tr" transform="rotate(0)"><g transform="translate(-115.711536,-144.207123)"><path d="M83.182916,105.90532v115.666178q149.548726,0,149.548726,0t-.252384-115.666178h-149.296342" transform="matrix(0 1-1 0 279.449945-13.750162)" fill="rgba(255,255,255,0.46)" stroke="#3f5787" stroke-width="0.6"/><rect width="34.700822" height="31.885102" rx="0" ry="0" transform="translate(72.910969 94.182927)" fill="rgba(210,219,237,0.29)" stroke-width="0"/><ellipse rx="28.800745" ry="28.361442" transform="translate(131.576307 126.068029)" fill="rgba(249,141,141,0.44)" stroke-width="0"/><polygon points="0,-24.58526 23.381971,-7.597263 14.450853,19.889893 -14.450853,19.889893 -23.381971,-7.597263 0,-24.58526" transform="matrix(.917907-.396796 0.396796 0.917907 86.356835 176.564601)" fill="rgba(252,240,155,0.39)" stroke-width="0"/></g></g></g><g id="ezmQEsx5krU7_to" transform="translate(165.56147,137.370564)"><g id="ezmQEsx5krU7_tr" transform="rotate(0)"><g transform="translate(-144.970521,-107.464389)"><path style="isolation:isolate" d="M83.182916,105.90532v115.666178q149.548726,0,149.548726,0t-.252384-115.666178h-149.296342" transform="matrix(0 1-1 0 307.868317-22.731685)" fill="#fff" stroke="#3f5787" stroke-width="0.6"/><path d="M98.86759,70.19227h63.459087" transform="translate(1.437414 16.620056)" fill="none" stroke="#3f5787" stroke-width="0.6"/><path d="M98.86759,70.19227h87.186606" transform="translate(1.437414 37.272124)" fill="none" stroke="#3f5787" stroke-width="0.6"/><path d="M98.86759,70.19227h87.186606" transform="translate(1.669015 52.834976)" fill="none" stroke="#3f5787" stroke-width="0.6"/><path d="M98.86759,70.19227h63.227486" transform="translate(1.669015 45.352835)" fill="none" stroke="#3f5787" stroke-width="0.6"/><path d="M98.86759,70.19227h63.227486" transform="translate(1.669015 60.317117)" fill="none" stroke="#3f5787" stroke-width="0.6"/><path d="M98.86759,70.19227h31.729543" transform="translate(1.437414 110.597104)" fill="none" stroke="#3f5787" stroke-width="0.6"/><path d="M98.86759,70.19227h67.608683" transform="translate(1.669015 117.480674)" fill="none" stroke="#3f5787" stroke-width="0.6"/></g></g></g></svg>
